<svg width="1000" height="1000" viewBox="0 0 1000 1000" xmlns="http://www.w3.org/2000/svg"><defs/><path fill="#ffffff" transform="matrix(3.9067301745668783 0 0 3.9067301745668783 -138.70594096749545 -237.915864788299)" d="M 163.48362409939 248.95425567029 L 75.21362409939 144.83425567029 L 105.57362409939 99.29425567029 L 221.57362409939 99.29425567029 L 251.76362409939 145.92425567029 Z M 90.21362409939 143.95425567029 L 163.52362409939 230.44425567029 L 170.58362409939 222.20425567029 L 104.21362409939 144.97425567029 L 119.21362409939 122.60425567029 L 210.05362409939 122.60425567029 L 224.14362409939 141.96425567029 L 176.56362409939 198.80425567029 L 134.90362409939 147.07425567029 L 143.52362409939 134.60425567029 L 125.63362409939 134.60425567029 L 119.26362409939 144.08425567029 L 178.48362409939 212.98425567029 L 236.82362409939 144.92425567029 L 215.01362409939 111.29425567029 L 112.01362409939 111.29425567029 Z M 149.87362409939 146.50425567029 L 176.76362409939 179.90425567029 L 208.95362409939 141.44425567029 L 203.95362409939 134.60425567029 L 158.11362409939 134.60425567029 Z"/><path id="text" fill="#ffffff" transform="matrix(0.8485169892798969 0 0 0.8485169892798969 -26.014277582423063 780.6567729838251)" d="M 356.42366579904 16.00410044643 C 361.29866579904 16.00410044643 365.54866579904 16.76972544643 369.17366579904 18.30097544643 C 372.79866579904 19.83222544643 375.62679079904 21.94160044643 377.65804079904 24.62910044643 C 379.68929079904 27.31660044643 380.70491579904 30.41035044643 380.70491579904 33.91035044643 C 380.70491579904 37.03535044643 379.87679079904 39.81660044643 378.22054079904 42.25410044643 C 376.56429079904 44.69160044643 374.48616579904 46.56660044643 371.98616579904 47.87910044643 C 373.86116579904 48.37910044643 375.67366579904 49.20722544643 377.42366579904 50.36347544643 C 379.17366579904 51.51972544643 380.61116579904 53.05097544643 381.73616579904 54.95722544643 C 382.86116579904 56.86347544643 383.42366579904 59.28535044643 383.42366579904 62.22285044643 C 383.42366579904 65.72285044643 382.36116579904 68.92597544643 380.23616579904 71.83222544643 C 378.11116579904 74.73847544643 375.14241579904 77.06660044643 371.32991579904 78.81660044643 C 367.51741579904 80.56660044643 363.07991579904 81.44160044643 358.01741579904 81.44160044643 C 355.26741579904 81.44160044643 352.29866579904 81.33222544643 349.11116579904 81.11347544643 C 345.92366579904 80.89472544643 342.89241579904 80.58222544643 340.01741579904 80.17597544643 C 337.14241579904 79.76972544643 334.70491579904 79.34785044643 332.70491579904 78.91035044643 L 332.70491579904 18.34785044643 C 336.20491579904 17.59785044643 339.98616579904 17.01972544643 344.04866579904 16.61347544643 C 348.11116579904 16.20722544643 352.23616579904 16.00410044643 356.42366579904 16.00410044643 Z M 356.42366579904 27.91035044643 C 352.42366579904 27.91035044643 348.86116579904 28.22285044643 345.73616579904 28.84785044643 L 345.73616579904 44.03535044643 L 357.45491579904 44.03535044643 C 360.64241579904 44.03535044643 363.15804079904 43.25410044643 365.00179079904 41.69160044643 C 366.84554079904 40.12910044643 367.76741579904 38.12910044643 367.76741579904 35.69160044643 C 367.76741579904 33.19160044643 366.65804079904 31.26972544643 364.43929079904 29.92597544643 C 362.22054079904 28.58222544643 359.54866579904 27.91035044643 356.42366579904 27.91035044643 Z M 345.73616579904 68.59785044643 C 347.48616579904 69.03535044643 349.50179079904 69.33222544643 351.78304079904 69.48847544643 C 354.06429079904 69.64472544643 355.89241579904 69.72285044643 357.26741579904 69.72285044643 C 360.89241579904 69.72285044643 363.87679079904 69.00410044643 366.22054079904 67.56660044643 C 368.56429079904 66.12910044643 369.73616579904 64.09785044643 369.73616579904 61.47285044643 C 369.73616579904 58.84785044643 368.51741579904 56.89472544643 366.07991579904 55.61347544643 C 363.64241579904 54.33222544643 360.70491579904 53.69160044643 357.26741579904 53.69160044643 L 345.73616579904 53.69160044643 L 345.73616579904 68.59785044643 Z M 426.18716579904 46.28535044643 C 424.18716579904 45.16035044643 422.09341579904 44.59785044643 419.90591579904 44.59785044643 C 417.15591579904 44.59785044643 414.87466579904 45.48847544643 413.06216579904 47.26972544643 C 411.24966579904 49.05097544643 409.65591579904 51.25410044643 408.28091579904 53.87910044643 L 408.28091579904 80.31660044643 L 396.37466579904 80.31660044643 L 396.37466579904 32.97285044643 L 408.28091579904 32.97285044643 L 408.28091579904 41.87910044643 C 409.90591579904 39.06660044643 411.82779079904 36.72285044643 414.04654079904 34.84785044643 C 416.26529079904 32.97285044643 418.78091579904 32.03535044643 421.59341579904 32.03535044643 C 423.28091579904 32.03535044643 424.81216579904 32.31660044643 426.18716579904 32.87910044643 L 426.18716579904 46.28535044643 Z M 454.70066579904 31.75410044643 C 457.26316579904 31.75410044643 459.85691579904 32.34785044643 462.48191579904 33.53535044643 C 465.10691579904 34.72285044643 467.29441579904 36.31660044643 469.04441579904 38.31660044643 L 469.04441579904 32.97285044643 L 480.95066579904 32.97285044643 L 480.95066579904 80.31660044643 L 469.04441579904 80.31660044643 L 469.04441579904 72.34785044643 C 467.66941579904 74.91035044643 465.66941579904 77.11347544643 463.04441579904 78.95722544643 C 460.41941579904 80.80097544643 457.35691579904 81.72285044643 453.85691579904 81.72285044643 C 450.04441579904 81.72285044643 446.52879079904 80.75410044643 443.31004079904 78.81660044643 C 440.09129079904 76.87910044643 437.51316579904 74.06660044643 435.57566579904 70.37910044643 C 433.63816579904 66.69160044643 432.66941579904 62.22285044643 432.66941579904 56.97285044643 C 432.66941579904 51.72285044643 433.65379079904 47.22285044643 435.62254079904 43.47285044643 C 437.59129079904 39.72285044643 440.24754079904 36.83222544643 443.59129079904 34.80097544643 C 446.93504079904 32.76972544643 450.63816579904 31.75410044643 454.70066579904 31.75410044643 Z M 457.13816579904 43.37910044643 C 454.63816579904 43.37910044643 452.49754079904 44.01972544643 450.71629079904 45.30097544643 C 448.93504079904 46.58222544643 447.54441579904 48.25410044643 446.54441579904 50.31660044643 C 445.54441579904 52.37910044643 445.04441579904 54.59785044643 445.04441579904 56.97285044643 C 445.04441579904 60.53535044643 446.12254079904 63.56660044643 448.27879079904 66.06660044643 C 450.43504079904 68.56660044643 453.29441579904 69.81660044643 456.85691579904 69.81660044643 C 458.98191579904 69.81660044643 460.96629079904 69.25410044643 462.81004079904 68.12910044643 C 464.65379079904 67.00410044643 466.15379079904 65.42597544643 467.31004079904 63.39472544643 C 468.46629079904 61.36347544643 469.04441579904 58.91035044643 469.04441579904 56.03535044643 L 469.04441579904 49.28535044643 C 467.35691579904 47.47285044643 465.52879079904 46.03535044643 463.56004079904 44.97285044643 C 461.59129079904 43.91035044643 459.45066579904 43.37910044643 457.13816579904 43.37910044643 Z M 508.05791579904 32.97285044643 L 508.05791579904 39.72285044643 C 509.49541579904 37.78535044643 511.44854079904 35.97285044643 513.91729079904 34.28535044643 C 516.38604079904 32.59785044643 519.21416579904 31.75410044643 522.40166579904 31.75410044643 C 527.21416579904 31.75410044643 531.24541579904 33.37910044643 534.49541579904 36.62910044643 C 537.74541579904 39.87910044643 539.37041579904 44.75410044643 539.37041579904 51.25410044643 L 539.37041579904 80.31660044643 L 527.46416579904 80.31660044643 L 527.37041579904 52.84785044643 C 527.37041579904 49.66035044643 526.60479079904 47.28535044643 525.07354079904 45.72285044643 C 523.54229079904 44.16035044643 521.43291579904 43.37910044643 518.74541579904 43.37910044643 C 516.62041579904 43.37910044643 514.63604079904 44.06660044643 512.79229079904 45.44160044643 C 510.94854079904 46.81660044643 509.37041579904 48.44160044643 508.05791579904 50.31660044643 L 508.05791579904 80.31660044643 L 496.15166579904 80.31660044643 L 496.15166579904 32.97285044643 L 508.05791579904 32.97285044643 Z M 598.63391579904 12.81660044643 L 598.63391579904 80.31660044643 L 586.72766579904 80.31660044643 L 586.72766579904 72.34785044643 C 585.35266579904 74.91035044643 583.35266579904 77.11347544643 580.72766579904 78.95722544643 C 578.10266579904 80.80097544643 575.04016579904 81.72285044643 571.54016579904 81.72285044643 C 567.72766579904 81.72285044643 564.21204079904 80.75410044643 560.99329079904 78.81660044643 C 557.77454079904 76.87910044643 555.19641579904 74.06660044643 553.25891579904 70.37910044643 C 551.32141579904 66.69160044643 550.35266579904 62.22285044643 550.35266579904 56.97285044643 C 550.35266579904 51.72285044643 551.33704079904 47.22285044643 553.30579079904 43.47285044643 C 555.27454079904 39.72285044643 557.93079079904 36.83222544643 561.27454079904 34.80097544643 C 564.61829079904 32.76972544643 568.32141579904 31.75410044643 572.38391579904 31.75410044643 C 574.94641579904 31.75410044643 577.54016579904 32.34785044643 580.16516579904 33.53535044643 C 582.79016579904 34.72285044643 584.97766579904 36.31660044643 586.72766579904 38.31660044643 L 586.72766579904 12.81660044643 L 598.63391579904 12.81660044643 Z M 574.82141579904 43.47285044643 C 572.32141579904 43.47285044643 570.18079079904 44.11347544643 568.39954079904 45.39472544643 C 566.61829079904 46.67597544643 565.22766579904 48.33222544643 564.22766579904 50.36347544643 C 563.22766579904 52.39472544643 562.72766579904 54.59785044643 562.72766579904 56.97285044643 C 562.72766579904 60.53535044643 563.80579079904 63.56660044643 565.96204079904 66.06660044643 C 568.11829079904 68.56660044643 570.97766579904 69.81660044643 574.54016579904 69.81660044643 C 576.66516579904 69.81660044643 578.64954079904 69.25410044643 580.49329079904 68.12910044643 C 582.33704079904 67.00410044643 583.83704079904 65.42597544643 584.99329079904 63.39472544643 C 586.14954079904 61.36347544643 586.72766579904 58.91035044643 586.72766579904 56.03535044643 L 586.72766579904 49.28535044643 C 585.04016579904 47.47285044643 583.21204079904 46.05097544643 581.24329079904 45.01972544643 C 579.27454079904 43.98847544643 577.13391579904 43.47285044643 574.82141579904 43.47285044643 Z M 699.53591579904 17.50410044643 L 699.53591579904 80.78535044643 L 694.84841579904 80.78535044643 L 657.62966579904 42.44160044643 L 657.62966579904 80.31660044643 L 644.59841579904 80.31660044643 L 644.59841579904 17.03535044643 L 649.28591579904 17.03535044643 L 686.50466579904 55.94160044643 L 686.50466579904 17.50410044643 L 699.53591579904 17.50410044643 Z M 735.54941579904 31.75410044643 C 738.11191579904 31.75410044643 740.70566579904 32.34785044643 743.33066579904 33.53535044643 C 745.95566579904 34.72285044643 748.14316579904 36.31660044643 749.89316579904 38.31660044643 L 749.89316579904 32.97285044643 L 761.79941579904 32.97285044643 L 761.79941579904 80.31660044643 L 749.89316579904 80.31660044643 L 749.89316579904 72.34785044643 C 748.51816579904 74.91035044643 746.51816579904 77.11347544643 743.89316579904 78.95722544643 C 741.26816579904 80.80097544643 738.20566579904 81.72285044643 734.70566579904 81.72285044643 C 730.89316579904 81.72285044643 727.37754079904 80.75410044643 724.15879079904 78.81660044643 C 720.94004079904 76.87910044643 718.36191579904 74.06660044643 716.42441579904 70.37910044643 C 714.48691579904 66.69160044643 713.51816579904 62.22285044643 713.51816579904 56.97285044643 C 713.51816579904 51.72285044643 714.50254079904 47.22285044643 716.47129079904 43.47285044643 C 718.44004079904 39.72285044643 721.09629079904 36.83222544643 724.44004079904 34.80097544643 C 727.78379079904 32.76972544643 731.48691579904 31.75410044643 735.54941579904 31.75410044643 Z M 737.98691579904 43.37910044643 C 735.48691579904 43.37910044643 733.34629079904 44.01972544643 731.56504079904 45.30097544643 C 729.78379079904 46.58222544643 728.39316579904 48.25410044643 727.39316579904 50.31660044643 C 726.39316579904 52.37910044643 725.89316579904 54.59785044643 725.89316579904 56.97285044643 C 725.89316579904 60.53535044643 726.97129079904 63.56660044643 729.12754079904 66.06660044643 C 731.28379079904 68.56660044643 734.14316579904 69.81660044643 737.70566579904 69.81660044643 C 739.83066579904 69.81660044643 741.81504079904 69.25410044643 743.65879079904 68.12910044643 C 745.50254079904 67.00410044643 747.00254079904 65.42597544643 748.15879079904 63.39472544643 C 749.31504079904 61.36347544643 749.89316579904 58.91035044643 749.89316579904 56.03535044643 L 749.89316579904 49.28535044643 C 748.20566579904 47.47285044643 746.37754079904 46.03535044643 744.40879079904 44.97285044643 C 742.44004079904 43.91035044643 740.29941579904 43.37910044643 737.98691579904 43.37910044643 Z M 788.90666579904 32.97285044643 L 788.90666579904 38.97285044643 C 790.34416579904 37.16035044643 792.07854079904 35.50410044643 794.10979079904 34.00410044643 C 796.14104079904 32.50410044643 798.75041579904 31.75410044643 801.93791579904 31.75410044643 C 805.25041579904 31.75410044643 808.25041579904 32.51972544643 810.93791579904 34.05097544643 C 813.62541579904 35.58222544643 815.71916579904 37.87910044643 817.21916579904 40.94160044643 C 819.09416579904 38.37910044643 821.28166579904 36.20722544643 823.78166579904 34.42597544643 C 826.28166579904 32.64472544643 829.18791579904 31.75410044643 832.50041579904 31.75410044643 C 835.68791579904 31.75410044643 838.59416579904 32.48847544643 841.21916579904 33.95722544643 C 843.84416579904 35.42597544643 845.95354079904 37.59785044643 847.54729079904 40.47285044643 C 849.14104079904 43.34785044643 849.93791579904 46.94160044643 849.93791579904 51.25410044643 L 849.93791579904 80.31660044643 L 838.03166579904 80.31660044643 L 837.93791579904 52.84785044643 C 837.93791579904 49.66035044643 837.10979079904 47.28535044643 835.45354079904 45.72285044643 C 833.79729079904 44.16035044643 831.62541579904 43.37910044643 828.93791579904 43.37910044643 C 826.87541579904 43.37910044643 825.09416579904 44.01972544643 823.59416579904 45.30097544643 C 822.09416579904 46.58222544643 820.68791579904 48.09785044643 819.37541579904 49.84785044643 L 819.37541579904 80.31660044643 L 807.46916579904 80.31660044643 L 807.37541579904 52.84785044643 C 807.37541579904 49.66035044643 806.54729079904 47.28535044643 804.89104079904 45.72285044643 C 803.23479079904 44.16035044643 801.09416579904 43.37910044643 798.46916579904 43.37910044643 C 796.46916579904 43.37910044643 794.68791579904 43.98847544643 793.12541579904 45.20722544643 C 791.56291579904 46.42597544643 790.15666579904 47.84785044643 788.90666579904 49.47285044643 L 788.90666579904 80.31660044643 L 777.00041579904 80.31660044643 L 777.00041579904 32.97285044643 L 788.90666579904 32.97285044643 Z M 884.82641579904 31.75410044643 C 889.45141579904 31.75410044643 893.43579079904 32.75410044643 896.77954079904 34.75410044643 C 900.12329079904 36.75410044643 902.68579079904 39.51972544643 904.46704079904 43.05097544643 C 906.24829079904 46.58222544643 907.13891579904 50.66035044643 907.13891579904 55.28535044643 L 907.13891579904 60.34785044643 L 872.82641579904 60.34785044643 C 873.45141579904 63.53535044643 875.01391579904 66.09785044643 877.51391579904 68.03535044643 C 880.01391579904 69.97285044643 883.07641579904 70.94160044643 886.70141579904 70.94160044643 C 890.13891579904 70.94160044643 893.26391579904 70.25410044643 896.07641579904 68.87910044643 C 898.88891579904 67.50410044643 901.13891579904 66.09785044643 902.82641579904 64.66035044643 L 902.73266579904 75.72285044643 C 901.23266579904 77.03535044643 898.99829079904 78.36347544643 896.02954079904 79.70722544643 C 893.06079079904 81.05097544643 889.79516579904 81.72285044643 886.23266579904 81.72285044643 C 881.54516579904 81.72285044643 877.27954079904 80.66035044643 873.43579079904 78.53535044643 C 869.59204079904 76.41035044643 866.52954079904 73.50410044643 864.24829079904 69.81660044643 C 861.96704079904 66.12910044643 860.82641579904 61.91035044643 860.82641579904 57.16035044643 C 860.82641579904 52.53535044643 861.85766579904 48.31660044643 863.92016579904 44.50410044643 C 865.98266579904 40.69160044643 868.82641579904 37.61347544643 872.45141579904 35.26972544643 C 876.07641579904 32.92597544643 880.20141579904 31.75410044643 884.82641579904 31.75410044643 Z M 884.54516579904 42.16035044643 C 881.60766579904 42.16035044643 879.13891579904 43.06660044643 877.13891579904 44.87910044643 C 875.13891579904 46.69160044643 873.76391579904 49.12910044643 873.01391579904 52.19160044643 L 895.70141579904 52.19160044643 C 895.45141579904 48.81660044643 894.20141579904 46.30097544643 891.95141579904 44.64472544643 C 889.70141579904 42.98847544643 887.23266579904 42.16035044643 884.54516579904 42.16035044643 Z"/></svg>