<svg width="1000" height="1000" viewBox="0 0 1000 1000" xmlns="http://www.w3.org/2000/svg"><defs/><path fill="#ffffff" transform="matrix(1.3322257072729797 0 0 1.3322257072729797 -40.58772688940837 -27.192674140293406)" d="M 405.77288278532 447.95835238086 L 317.50288278532 343.83835238086 L 347.86288278532 298.29835238086 L 463.86288278532 298.29835238086 L 494.05288278532 344.92835238086 Z M 332.50288278532 342.95835238086 L 405.81288278532 429.44835238086 L 412.87288278532 421.20835238086 L 346.50288278532 343.97835238086 L 361.50288278532 321.60835238086 L 452.34288278532 321.60835238086 L 466.43288278532 340.96835238086 L 418.85288278532 397.80835238086 L 377.19288278532 346.07835238086 L 385.81288278532 333.60835238086 L 367.92288278532 333.60835238086 L 361.55288278532 343.08835238086 L 420.77288278532 411.98835238086 L 479.11288278532 343.92835238086 L 457.30288278532 310.29835238086 L 354.30288278532 310.29835238086 Z M 392.16288278532 345.50835238086 L 419.05288278532 378.90835238086 L 451.24288278532 340.44835238086 L 446.24288278532 333.60835238086 L 400.40288278532 333.60835238086 Z"/><path id="text" fill="#ffffff" transform="matrix(0.606770212003345 0 0 0.606770212003345 -5.403997200654791 340.5806107120512)" d="M 282.08547116791 412.42186983929 C 285.02297116791 412.42186983929 287.89797116791 412.92186983929 290.71047116791 413.92186983929 C 293.52297116791 414.92186983929 296.06984616791 416.39061983929 298.35109616791 418.32811983929 C 300.63234616791 420.26561983929 302.44484616791 422.59374483929 303.78859616791 425.31249483929 C 305.13234616791 428.03124483929 305.80422116791 431.14061983929 305.80422116791 434.64061983929 C 305.80422116791 438.89061983929 304.72609616791 442.65624483929 302.56984616791 445.93749483929 C 300.41359616791 449.21874483929 297.55422116791 451.79686983929 293.99172116791 453.67186983929 C 290.42922116791 455.54686983929 286.55422116791 456.48436983929 282.36672116791 456.48436983929 C 279.55422116791 456.48436983929 277.02297116791 456.20311983929 274.77297116791 455.64061983929 C 272.52297116791 455.07811983929 270.64797116791 454.42186983929 269.14797116791 453.67186983929 L 269.14797116791 475.23436983929 L 256.11672116791 475.23436983929 L 256.11672116791 412.42186983929 L 282.08547116791 412.42186983929 Z M 269.14797116791 424.60936983929 L 269.14797116791 443.17186983929 C 270.52297116791 443.73436983929 272.19484616791 444.21874483929 274.16359616791 444.62499483929 C 276.13234616791 445.03124483929 278.14797116791 445.23436983929 280.21047116791 445.23436983929 C 283.96047116791 445.23436983929 286.94484616791 444.18749483929 289.16359616791 442.09374483929 C 291.38234616791 439.99999483929 292.49172116791 437.51561983929 292.49172116791 434.64061983929 C 292.49172116791 431.32811983929 291.24172116791 428.82811983929 288.74172116791 427.14061983929 C 286.24172116791 425.45311983929 283.30422116791 424.60936983929 279.92922116791 424.60936983929 L 269.14797116791 424.60936983929 Z M 345.00522116791 412.42186983929 C 347.94272116791 412.42186983929 350.81772116791 412.82811983929 353.63022116791 413.64061983929 C 356.44272116791 414.45311983929 358.98959616791 415.70311983929 361.27084616791 417.39061983929 C 363.55209616791 419.07811983929 365.36459616791 421.18749483929 366.70834616791 423.71874483929 C 368.05209616791 426.24999483929 368.72397116791 429.26561983929 368.72397116791 432.76561983929 C 368.72397116791 436.45311983929 367.80209616791 439.62499483929 365.95834616791 442.28124483929 C 364.11459616791 444.93749483929 361.69272116791 446.99999483929 358.69272116791 448.46874483929 C 355.69272116791 449.93749483929 352.44272116791 450.79686983929 348.94272116791 451.04686983929 L 371.53647116791 475.23436983929 L 354.38022116791 475.23436983929 L 332.53647116791 449.54686983929 L 332.53647116791 475.23436983929 L 319.50522116791 475.23436983929 L 319.50522116791 412.42186983929 L 345.00522116791 412.42186983929 Z M 332.53647116791 424.60936983929 L 332.53647116791 440.45311983929 C 334.03647116791 440.95311983929 335.70834616791 441.34374483929 337.55209616791 441.62499483929 C 339.39584616791 441.90624483929 341.25522116791 442.04686983929 343.13022116791 442.04686983929 C 346.88022116791 442.04686983929 349.86459616791 441.28124483929 352.08334616791 439.74999483929 C 354.30209616791 438.21874483929 355.41147116791 436.04686983929 355.41147116791 433.23436983929 C 355.41147116791 430.17186983929 354.23959616791 427.96874483929 351.89584616791 426.62499483929 C 349.55209616791 425.28124483929 346.69272116791 424.60936983929 343.31772116791 424.60936983929 L 332.53647116791 424.60936983929 Z M 416.45622116791 463.51561983929 L 416.45622116791 475.23436983929 L 382.23747116791 475.23436983929 L 382.23747116791 463.51561983929 L 392.83122116791 463.51561983929 L 392.83122116791 424.14061983929 L 382.23747116791 424.14061983929 L 382.23747116791 412.42186983929 L 416.45622116791 412.42186983929 L 416.45622116791 424.14061983929 L 405.86247116791 424.14061983929 L 405.86247116791 463.51561983929 L 416.45622116791 463.51561983929 Z M 497.56347116791 411.95311983929 L 497.56347116791 475.23436983929 L 484.53222116791 475.23436983929 L 484.53222116791 436.98436983929 L 468.40722116791 454.60936983929 L 464.65722116791 454.60936983929 L 448.34472116791 436.98436983929 L 448.34472116791 475.23436983929 L 435.31347116791 475.23436983929 L 435.31347116791 411.95311983929 L 439.71972116791 411.95311983929 L 466.53222116791 439.89061983929 L 493.15722116791 411.95311983929 L 497.56347116791 411.95311983929 Z M 557.67072116791 437.92186983929 L 557.67072116791 448.51561983929 L 529.92072116791 448.51561983929 L 529.92072116791 463.70311983929 L 561.32697116791 463.70311983929 L 561.32697116791 475.23436983929 L 516.88947116791 475.23436983929 L 516.88947116791 412.42186983929 L 561.32697116791 412.42186983929 L 561.32697116791 423.67186983929 L 529.92072116791 423.67186983929 L 529.92072116791 437.92186983929 L 557.67072116791 437.92186983929 Z M 687.07272116791 412.42186983929 L 665.88522116791 475.23436983929 L 656.88522116791 475.23436983929 L 642.91647116791 434.82811983929 L 628.94772116791 475.23436983929 L 619.94772116791 475.23436983929 L 599.04147116791 412.42186983929 L 613.85397116791 412.42186983929 L 625.47897116791 452.07811983929 L 638.69772116791 412.42186983929 L 647.41647116791 412.42186983929 L 660.44772116791 452.07811983929 L 672.26022116791 412.42186983929 L 687.07272116791 412.42186983929 Z M 738.74247116791 437.92186983929 L 738.74247116791 448.51561983929 L 710.99247116791 448.51561983929 L 710.99247116791 463.70311983929 L 742.39872116791 463.70311983929 L 742.39872116791 475.23436983929 L 697.96122116791 475.23436983929 L 697.96122116791 412.42186983929 L 742.39872116791 412.42186983929 L 742.39872116791 423.67186983929 L 710.99247116791 423.67186983929 L 710.99247116791 437.92186983929 L 738.74247116791 437.92186983929 Z M 783.56847116791 410.92186983929 C 788.44347116791 410.92186983929 792.69347116791 411.68749483929 796.31847116791 413.21874483929 C 799.94347116791 414.74999483929 802.77159616791 416.85936983929 804.80284616791 419.54686983929 C 806.83409616791 422.23436983929 807.84972116791 425.32811983929 807.84972116791 428.82811983929 C 807.84972116791 431.95311983929 807.02159616791 434.73436983929 805.36534616791 437.17186983929 C 803.70909616791 439.60936983929 801.63097116791 441.48436983929 799.13097116791 442.79686983929 C 801.00597116791 443.29686983929 802.81847116791 444.12499483929 804.56847116791 445.28124483929 C 806.31847116791 446.43749483929 807.75597116791 447.96874483929 808.88097116791 449.87499483929 C 810.00597116791 451.78124483929 810.56847116791 454.20311983929 810.56847116791 457.14061983929 C 810.56847116791 460.64061983929 809.50597116791 463.84374483929 807.38097116791 466.74999483929 C 805.25597116791 469.65624483929 802.28722116791 471.98436983929 798.47472116791 473.73436983929 C 794.66222116791 475.48436983929 790.22472116791 476.35936983929 785.16222116791 476.35936983929 C 782.41222116791 476.35936983929 779.44347116791 476.24999483929 776.25597116791 476.03124483929 C 773.06847116791 475.81249483929 770.03722116791 475.49999483929 767.16222116791 475.09374483929 C 764.28722116791 474.68749483929 761.84972116791 474.26561983929 759.84972116791 473.82811983929 L 759.84972116791 413.26561983929 C 763.34972116791 412.51561983929 767.13097116791 411.93749483929 771.19347116791 411.53124483929 C 775.25597116791 411.12499483929 779.38097116791 410.92186983929 783.56847116791 410.92186983929 Z M 783.56847116791 422.82811983929 C 779.56847116791 422.82811983929 776.00597116791 423.14061983929 772.88097116791 423.76561983929 L 772.88097116791 438.95311983929 L 784.59972116791 438.95311983929 C 787.78722116791 438.95311983929 790.30284616791 438.17186983929 792.14659616791 436.60936983929 C 793.99034616791 435.04686983929 794.91222116791 433.04686983929 794.91222116791 430.60936983929 C 794.91222116791 428.10936983929 793.80284616791 426.18749483929 791.58409616791 424.84374483929 C 789.36534616791 423.49999483929 786.69347116791 422.82811983929 783.56847116791 422.82811983929 Z M 772.88097116791 463.51561983929 C 774.63097116791 463.95311983929 776.64659616791 464.24999483929 778.92784616791 464.40624483929 C 781.20909616791 464.56249483929 783.03722116791 464.64061983929 784.41222116791 464.64061983929 C 788.03722116791 464.64061983929 791.02159616791 463.92186983929 793.36534616791 462.48436983929 C 795.70909616791 461.04686983929 796.88097116791 459.01561983929 796.88097116791 456.39061983929 C 796.88097116791 453.76561983929 795.66222116791 451.81249483929 793.22472116791 450.53124483929 C 790.78722116791 449.24999483929 787.84972116791 448.60936983929 784.41222116791 448.60936983929 L 772.88097116791 448.60936983929 L 772.88097116791 463.51561983929 Z M 871.43922116791 411.20311983929 C 875.06422116791 411.20311983929 878.37672116791 411.70311983929 881.37672116791 412.70311983929 C 884.37672116791 413.70311983929 886.90797116791 414.85936983929 888.97047116791 416.17186983929 L 888.97047116791 429.01561983929 C 886.72047116791 427.64061983929 884.31422116791 426.35936983929 881.75172116791 425.17186983929 C 879.18922116791 423.98436983929 876.28297116791 423.39061983929 873.03297116791 423.39061983929 C 871.40797116791 423.39061983929 869.79859616791 423.64061983929 868.20484616791 424.14061983929 C 866.61109616791 424.64061983929 865.29859616791 425.39061983929 864.26734616791 426.39061983929 C 863.23609616791 427.39061983929 862.72047116791 428.67186983929 862.72047116791 430.23436983929 C 862.72047116791 432.29686983929 863.62672116791 433.85936983929 865.43922116791 434.92186983929 C 867.25172116791 435.98436983929 869.47047116791 437.04686983929 872.09547116791 438.10936983929 L 879.78297116791 441.29686983929 C 884.15797116791 443.17186983929 887.37672116791 445.45311983929 889.43922116791 448.14061983929 C 891.50172116791 450.82811983929 892.53297116791 453.89061983929 892.53297116791 457.32811983929 C 892.53297116791 461.07811983929 891.45484616791 464.37499483929 889.29859616791 467.21874483929 C 887.14234616791 470.06249483929 884.26734616791 472.29686983929 880.67359616791 473.92186983929 C 877.07984616791 475.54686983929 873.09547116791 476.35936983929 868.72047116791 476.35936983929 C 865.03297116791 476.35936983929 861.50172116791 475.73436983929 858.12672116791 474.48436983929 C 854.75172116791 473.23436983929 851.81422116791 471.70311983929 849.31422116791 469.89061983929 L 849.31422116791 457.04686983929 C 852.06422116791 459.04686983929 855.09547116791 460.73436983929 858.40797116791 462.10936983929 C 861.72047116791 463.48436983929 865.25172116791 464.17186983929 869.00172116791 464.17186983929 C 871.62672116791 464.17186983929 873.87672116791 463.65624483929 875.75172116791 462.62499483929 C 877.62672116791 461.59374483929 878.56422116791 460.04686983929 878.56422116791 457.98436983929 C 878.56422116791 456.35936983929 877.79859616791 455.03124483929 876.26734616791 453.99999483929 C 874.73609616791 452.96874483929 873.06422116791 452.10936983929 871.25172116791 451.42186983929 L 861.59547116791 447.67186983929 C 856.72047116791 445.79686983929 853.42359616791 443.34374483929 851.70484616791 440.31249483929 C 849.98609616791 437.28124483929 849.12672116791 433.92186983929 849.12672116791 430.23436983929 C 849.12672116791 426.42186983929 850.17359616791 423.09374483929 852.26734616791 420.24999483929 C 854.36109616791 417.40624483929 857.09547116791 415.18749483929 860.47047116791 413.59374483929 C 863.84547116791 411.99999483929 867.50172116791 411.20311983929 871.43922116791 411.20311983929 Z M 933.98397116791 411.01561983929 C 938.48397116791 411.01561983929 942.70272116791 411.81249483929 946.64022116791 413.40624483929 C 950.57772116791 414.99999483929 954.06209616791 417.24999483929 957.09334616791 420.15624483929 C 960.12459616791 423.06249483929 962.49959616791 426.51561983929 964.21834616791 430.51561983929 C 965.93709616791 434.51561983929 966.79647116791 438.95311983929 966.79647116791 443.82811983929 C 966.79647116791 448.70311983929 965.93709616791 453.14061983929 964.21834616791 457.14061983929 C 962.49959616791 461.14061983929 960.12459616791 464.59374483929 957.09334616791 467.49999483929 C 954.06209616791 470.40624483929 950.57772116791 472.65624483929 946.64022116791 474.24999483929 C 942.70272116791 475.84374483929 938.48397116791 476.64061983929 933.98397116791 476.64061983929 C 929.48397116791 476.64061983929 925.24959616791 475.84374483929 921.28084616791 474.24999483929 C 917.31209616791 472.65624483929 913.81209616791 470.40624483929 910.78084616791 467.49999483929 C 907.74959616791 464.59374483929 905.37459616791 461.14061983929 903.65584616791 457.14061983929 C 901.93709616791 453.14061983929 901.07772116791 448.70311983929 901.07772116791 443.82811983929 C 901.07772116791 438.95311983929 901.93709616791 434.51561983929 903.65584616791 430.51561983929 C 905.37459616791 426.51561983929 907.74959616791 423.06249483929 910.78084616791 420.15624483929 C 913.81209616791 417.24999483929 917.31209616791 414.99999483929 921.28084616791 413.40624483929 C 925.24959616791 411.81249483929 929.48397116791 411.01561983929 933.98397116791 411.01561983929 Z M 933.98397116791 423.29686983929 C 930.23397116791 423.29686983929 926.87459616791 424.20311983929 923.90584616791 426.01561983929 C 920.93709616791 427.82811983929 918.60897116791 430.26561983929 916.92147116791 433.32811983929 C 915.23397116791 436.39061983929 914.39022116791 439.89061983929 914.39022116791 443.82811983929 C 914.39022116791 447.70311983929 915.23397116791 451.18749483929 916.92147116791 454.28124483929 C 918.60897116791 457.37499483929 920.93709616791 459.81249483929 923.90584616791 461.59374483929 C 926.87459616791 463.37499483929 930.23397116791 464.26561983929 933.98397116791 464.26561983929 C 937.73397116791 464.26561983929 941.07772116791 463.37499483929 944.01522116791 461.59374483929 C 946.95272116791 459.81249483929 949.26522116791 457.37499483929 950.95272116791 454.28124483929 C 952.64022116791 451.18749483929 953.48397116791 447.70311983929 953.48397116791 443.82811983929 C 953.48397116791 439.89061983929 952.64022116791 436.39061983929 950.95272116791 433.32811983929 C 949.26522116791 430.26561983929 946.95272116791 427.82811983929 944.01522116791 426.01561983929 C 941.07772116791 424.20311983929 937.73397116791 423.29686983929 933.98397116791 423.29686983929 Z M 993.99747116791 412.42186983929 L 993.99747116791 463.51561983929 L 1025.40372116791 463.51561983929 L 1025.40372116791 475.23436983929 L 980.96622116791 475.23436983929 L 980.96622116791 412.42186983929 L 993.99747116791 412.42186983929 Z M 1094.60472116791 412.23436983929 L 1094.60472116791 450.39061983929 C 1094.60472116791 455.82811983929 1093.40159616791 460.49999483929 1090.99534616791 464.40624483929 C 1088.58909616791 468.31249483929 1085.33909616791 471.31249483929 1081.24534616791 473.40624483929 C 1077.15159616791 475.49999483929 1072.57347116791 476.54686983929 1067.51097116791 476.54686983929 C 1062.44847116791 476.54686983929 1057.85472116791 475.49999483929 1053.72972116791 473.40624483929 C 1049.60472116791 471.31249483929 1046.33909616791 468.31249483929 1043.93284616791 464.40624483929 C 1041.52659616791 460.49999483929 1040.32347116791 455.82811983929 1040.32347116791 450.39061983929 L 1040.32347116791 412.23436983929 L 1053.35472116791 412.23436983929 L 1053.35472116791 449.64061983929 C 1053.35472116791 454.45311983929 1054.65159616791 458.06249483929 1057.24534616791 460.46874483929 C 1059.83909616791 462.87499483929 1063.26097116791 464.04686983929 1067.51097116791 463.98436983929 C 1071.69847116791 463.98436983929 1075.10472116791 462.79686983929 1077.72972116791 460.42186983929 C 1080.35472116791 458.04686983929 1081.66722116791 454.45311983929 1081.66722116791 449.64061983929 L 1081.66722116791 412.23436983929 L 1094.60472116791 412.23436983929 Z M 1159.30572116791 412.42186983929 L 1159.30572116791 424.14061983929 L 1139.24322116791 424.14061983929 L 1139.24322116791 474.95311983929 L 1126.30572116791 474.95311983929 L 1126.30572116791 424.14061983929 L 1106.24322116791 424.14061983929 L 1106.24322116791 412.42186983929 L 1159.30572116791 412.42186983929 Z M 1205.53797116791 463.51561983929 L 1205.53797116791 475.23436983929 L 1171.31922116791 475.23436983929 L 1171.31922116791 463.51561983929 L 1181.91297116791 463.51561983929 L 1181.91297116791 424.14061983929 L 1171.31922116791 424.14061983929 L 1171.31922116791 412.42186983929 L 1205.53797116791 412.42186983929 L 1205.53797116791 424.14061983929 L 1194.94422116791 424.14061983929 L 1194.94422116791 463.51561983929 L 1205.53797116791 463.51561983929 Z M 1250.27022116791 411.01561983929 C 1254.77022116791 411.01561983929 1258.98897116791 411.81249483929 1262.92647116791 413.40624483929 C 1266.86397116791 414.99999483929 1270.34834616791 417.24999483929 1273.37959616791 420.15624483929 C 1276.41084616791 423.06249483929 1278.78584616791 426.51561983929 1280.50459616791 430.51561983929 C 1282.22334616791 434.51561983929 1283.08272116791 438.95311983929 1283.08272116791 443.82811983929 C 1283.08272116791 448.70311983929 1282.22334616791 453.14061983929 1280.50459616791 457.14061983929 C 1278.78584616791 461.14061983929 1276.41084616791 464.59374483929 1273.37959616791 467.49999483929 C 1270.34834616791 470.40624483929 1266.86397116791 472.65624483929 1262.92647116791 474.24999483929 C 1258.98897116791 475.84374483929 1254.77022116791 476.64061983929 1250.27022116791 476.64061983929 C 1245.77022116791 476.64061983929 1241.53584616791 475.84374483929 1237.56709616791 474.24999483929 C 1233.59834616791 472.65624483929 1230.09834616791 470.40624483929 1227.06709616791 467.49999483929 C 1224.03584616791 464.59374483929 1221.66084616791 461.14061983929 1219.94209616791 457.14061983929 C 1218.22334616791 453.14061983929 1217.36397116791 448.70311983929 1217.36397116791 443.82811983929 C 1217.36397116791 438.95311983929 1218.22334616791 434.51561983929 1219.94209616791 430.51561983929 C 1221.66084616791 426.51561983929 1224.03584616791 423.06249483929 1227.06709616791 420.15624483929 C 1230.09834616791 417.24999483929 1233.59834616791 414.99999483929 1237.56709616791 413.40624483929 C 1241.53584616791 411.81249483929 1245.77022116791 411.01561983929 1250.27022116791 411.01561983929 Z M 1250.27022116791 423.29686983929 C 1246.52022116791 423.29686983929 1243.16084616791 424.20311983929 1240.19209616791 426.01561983929 C 1237.22334616791 427.82811983929 1234.89522116791 430.26561983929 1233.20772116791 433.32811983929 C 1231.52022116791 436.39061983929 1230.67647116791 439.89061983929 1230.67647116791 443.82811983929 C 1230.67647116791 447.70311983929 1231.52022116791 451.18749483929 1233.20772116791 454.28124483929 C 1234.89522116791 457.37499483929 1237.22334616791 459.81249483929 1240.19209616791 461.59374483929 C 1243.16084616791 463.37499483929 1246.52022116791 464.26561983929 1250.27022116791 464.26561983929 C 1254.02022116791 464.26561983929 1257.36397116791 463.37499483929 1260.30147116791 461.59374483929 C 1263.23897116791 459.81249483929 1265.55147116791 457.37499483929 1267.23897116791 454.28124483929 C 1268.92647116791 451.18749483929 1269.77022116791 447.70311983929 1269.77022116791 443.82811983929 C 1269.77022116791 439.89061983929 1268.92647116791 436.39061983929 1267.23897116791 433.32811983929 C 1265.55147116791 430.26561983929 1263.23897116791 427.82811983929 1260.30147116791 426.01561983929 C 1257.36397116791 424.20311983929 1254.02022116791 423.29686983929 1250.27022116791 423.29686983929 Z M 1352.18997116791 412.42186983929 L 1352.18997116791 475.70311983929 L 1347.50247116791 475.70311983929 L 1310.28372116791 437.35936983929 L 1310.28372116791 475.23436983929 L 1297.25247116791 475.23436983929 L 1297.25247116791 411.95311983929 L 1301.93997116791 411.95311983929 L 1339.15872116791 450.85936983929 L 1339.15872116791 412.42186983929 L 1352.18997116791 412.42186983929 Z M 1388.67222116791 411.20311983929 C 1392.29722116791 411.20311983929 1395.60972116791 411.70311983929 1398.60972116791 412.70311983929 C 1401.60972116791 413.70311983929 1404.14097116791 414.85936983929 1406.20347116791 416.17186983929 L 1406.20347116791 429.01561983929 C 1403.95347116791 427.64061983929 1401.54722116791 426.35936983929 1398.98472116791 425.17186983929 C 1396.42222116791 423.98436983929 1393.51597116791 423.39061983929 1390.26597116791 423.39061983929 C 1388.64097116791 423.39061983929 1387.03159616791 423.64061983929 1385.43784616791 424.14061983929 C 1383.84409616791 424.64061983929 1382.53159616791 425.39061983929 1381.50034616791 426.39061983929 C 1380.46909616791 427.39061983929 1379.95347116791 428.67186983929 1379.95347116791 430.23436983929 C 1379.95347116791 432.29686983929 1380.85972116791 433.85936983929 1382.67222116791 434.92186983929 C 1384.48472116791 435.98436983929 1386.70347116791 437.04686983929 1389.32847116791 438.10936983929 L 1397.01597116791 441.29686983929 C 1401.39097116791 443.17186983929 1404.60972116791 445.45311983929 1406.67222116791 448.14061983929 C 1408.73472116791 450.82811983929 1409.76597116791 453.89061983929 1409.76597116791 457.32811983929 C 1409.76597116791 461.07811983929 1408.68784616791 464.37499483929 1406.53159616791 467.21874483929 C 1404.37534616791 470.06249483929 1401.50034616791 472.29686983929 1397.90659616791 473.92186983929 C 1394.31284616791 475.54686983929 1390.32847116791 476.35936983929 1385.95347116791 476.35936983929 C 1382.26597116791 476.35936983929 1378.73472116791 475.73436983929 1375.35972116791 474.48436983929 C 1371.98472116791 473.23436983929 1369.04722116791 471.70311983929 1366.54722116791 469.89061983929 L 1366.54722116791 457.04686983929 C 1369.29722116791 459.04686983929 1372.32847116791 460.73436983929 1375.64097116791 462.10936983929 C 1378.95347116791 463.48436983929 1382.48472116791 464.17186983929 1386.23472116791 464.17186983929 C 1388.85972116791 464.17186983929 1391.10972116791 463.65624483929 1392.98472116791 462.62499483929 C 1394.85972116791 461.59374483929 1395.79722116791 460.04686983929 1395.79722116791 457.98436983929 C 1395.79722116791 456.35936983929 1395.03159616791 455.03124483929 1393.50034616791 453.99999483929 C 1391.96909616791 452.96874483929 1390.29722116791 452.10936983929 1388.48472116791 451.42186983929 L 1378.82847116791 447.67186983929 C 1373.95347116791 445.79686983929 1370.65659616791 443.34374483929 1368.93784616791 440.31249483929 C 1367.21909616791 437.28124483929 1366.35972116791 433.92186983929 1366.35972116791 430.23436983929 C 1366.35972116791 426.42186983929 1367.40659616791 423.09374483929 1369.50034616791 420.24999483929 C 1371.59409616791 417.40624483929 1374.32847116791 415.18749483929 1377.70347116791 413.59374483929 C 1381.07847116791 411.99999483929 1384.73472116791 411.20311983929 1388.67222116791 411.20311983929 Z"/></svg>